<svg id="Layer_1" data-name="Layer 1" xmlns="http://www.w3.org/2000/svg" viewBox="0 0 48 48"><g id="ZfS0QZ"><path d="M22.83,8h2.41a2.19,2.19,0,0,0,.33.12A13.26,13.26,0,0,1,37.35,21.24c0,3.08,0,6.16,0,9.24a3.17,3.17,0,0,1-2.27,3.15l-2.42.82c-.64.23-1.52.29-1.85.75s-.17,1.32-.12,2A2.5,2.5,0,0,1,28.94,40H19.13a2.46,2.46,0,0,1-1.74-2.81c0-.49,0-1,0-1.49s-.16-.66-.58-.8c-1.28-.4-2.55-.84-3.83-1.27a3.15,3.15,0,0,1-2.27-3.15c0-3.13,0-6.26,0-9.39A13.2,13.2,0,0,1,20.21,8.58C21.07,8.33,22,8.19,22.83,8Zm.31,18.27a4,4,0,1,0-4.06,3.94A4,4,0,0,0,23.14,26.27ZM29,30.21a4,4,0,1,0-4-4.05A4,4,0,0,0,29,30.21ZM24,29.13c-.62,1.19-1.18,2.15-1.63,3.15a1.65,1.65,0,0,0,.55,2,1.77,1.77,0,0,0,2.17,0,1.63,1.63,0,0,0,.54-2C25.21,31.27,24.65,30.31,24,29.13Z"/></g></svg>